#!OML:ASF F:\VICON\USERDATA\INSTALL\rory3\rory3.ASF
:FULLY-SPECIFIED
:DEGREES
1228
root -5.76155 17.1389 10.7822 -160.233 -26.6312 -175.213
lowerback -21.7774 -1.83176 5.3568
upperback -6.22624 -5.87306 9.44419
thorax 5.88068 -3.53038 5.62205
lowerneck -6.71519 -20.1619 -8.86568
upperneck 9.06987 -27.1992 4.82783
head 5.59915 -13.3834 0.51224
rclavicle -1.14798e-014 -8.90555e-014
rhumerus -0.713364 14.4765 -29.924
rradius 27.5017
rwrist -13.9345
rhand 25.8734 1.9816
rfingers 7.12502
rthumb 49.9618 -19.2612
lclavicle -1.14798e-014 -8.90555e-014
lhumerus 2.91438 10.8213 -11.8873
lradius 24.2524
lwrist -21.451
lhand 13.986 28.5515
lfingers 7.12502
lthumb 38.8963 54.1012
rfemur -15.3655 -9.91675 32.4932
rtibia 41.8729
rfoot 20.17 -20.8926
rtoes 7.03611
lfemur -38.2715 7.45538 -33.8741
ltibia 24.7251
lfoot -33.8643 28.7504
ltoes 20.6197
1229
root -5.78085 17.1335 10.7758 -160.196 -26.5692 -175.147
lowerback -22.025 -1.80103 5.54728
upperback -6.14533 -5.92995 9.51034
thorax 6.09325 -3.55783 5.55921
lowerneck -6.86341 -20.1088 -8.68646
upperneck 8.81951 -27.0643 4.69835
head 5.49292 -13.317 0.481703
rclavicle -3.16068e-014 1.90833e-014
rhumerus 0.566648 13.3311 -27.912
rradius 27.1932
rwrist -13.1582
rhand 25.7011 1.83634
rfingers 7.12502
rthumb 49.804 -19.4887
lclavicle -3.16068e-014 1.90833e-014
lhumerus 2.79262 11.0082 -12.2095
lradius 24.1087
lwrist -21.4462
lhand 13.7992 28.4544
lfingers 7.12502
lthumb 38.7202 54.054
rfemur -15.2982 -9.90087 32.4909
rtibia 41.852
rfoot 20.3328 -20.4294
rtoes 6.91414
lfemur -38.2471 7.53648 -33.8977
ltibia 24.6124
lfoot -33.8684 28.6256
ltoes 21.0588
1230
root -5.79863 17.1327 10.7657 -160.129 -26.4358 -175.184
lowerback -22.0933 -1.78406 5.69224
upperback -6.14263 -5.96418 9.5449
thorax 6.12523 -3.57782 5.50264
lowerneck -7.14624 -20.0453 -8.59581
upperneck 8.81583 -26.9212 4.52617
head 5.49114 -13.2452 0.418443
rclavicle 4.47266e-015 7.31528e-014
rhumerus 1.80556 11.8194 -26.102
rradius 26.9729
rwrist -11.8948
rhand 26.1402 1.2565
rfingers 7.12502
rthumb 50.2059 -19.8575
lclavicle 4.47266e-015 7.31528e-014
lhumerus 2.63615 11.1737 -12.5634
lradius 24.2424
lwrist -21.225
lhand 14.2498 28.871
lfingers 7.12502
lthumb 39.145 54.3494
rfemur -15.1799 -9.78264 32.3712
rtibia 41.672
rfoot 20.6059 -20.8102
rtoes 9.26395
lfemur -38.2995 7.6777 -34.0224
ltibia 24.7244
lfoot -34.0003 28.3548
ltoes 21.3646
1231
root -5.82323 17.128 10.7561 -160.091 -26.4206 -175.1
lowerback -22.1946 -1.72807 6.06487
upperback -6.14224 -6.01044 9.58601
thorax 6.15215 -3.60435 5.31962
lowerneck -7.51227 -20.0031 -8.52137
upperneck 8.85903 -26.8022 4.35569
head 5.52106 -13.1821 0.34237
rclavicle 3.57812e-015 4.77083e-014
rhumerus 2.92251 10.6233 -24.2473
rradius 26.8576
rwrist -10.9569
rhand 26.0275 1.42554
rfingers 7.12502
rthumb 50.1028 -19.743
lclavicle 3.57812e-015 4.77083e-014
lhumerus 2.42271 11.2463 -12.914
lradius 24.4085
lwrist -21.0317
lhand 14.2994 29.2559
lfingers 7.12502
lthumb 39.1917 54.7207
rfemur -15.0034 -9.83837 32.3535
rtibia 41.4122
rfoot 20.609 -21.1079
rtoes 10.7091
lfemur -38.4033 7.73868 -34.0387
ltibia 24.8978
lfoot -34.016 28.2826
ltoes 21.1775
1232
root -5.85373 17.121 10.7407 -160.082 -26.5898 -174.927
lowerback -22.4433 -1.70639 6.52014
upperback -6.14842 -6.15007 9.65613
thorax 6.24899 -3.67701 5.08999
lowerneck -7.68533 -19.9671 -8.35314
upperneck 8.78645 -26.7172 4.20156
head 5.47695 -13.1409 0.286095
rclavicle -1.17283e-014 1.90833e-014
rhumerus 4.06336 9.23905 -22.5119
rradius 26.5664
rwrist -10.0422
rhand 25.7557 1.67582
rfingers 7.12502
rthumb 49.8541 -19.6232
lclavicle -1.17283e-014 1.90833e-014
lhumerus 2.36749 11.377 -13.2525
lradius 24.2735
lwrist -21.0134
lhand 14.1914 29.4192
lfingers 7.12502
lthumb 39.09 54.9134
rfemur -14.7764 -10.1199 32.4381
rtibia 41.1375
rfoot 20.5673 -20.9618
rtoes 11.2062
lfemur -38.4838 7.88382 -34.0253
ltibia 25.0636
lfoot -33.8639 28.0402
ltoes 21.0073
1233
root -5.87339 17.1126 10.7248 -159.924 -26.4622 -175.024
lowerback -22.6855 -1.73454 6.52276
upperback -6.14074 -6.23918 9.70713
thorax 6.39483 -3.7231 5.10857
lowerneck -7.69937 -19.8929 -8.19843
upperneck 8.57592 -26.5934 4.1295
head 5.37609 -13.0829 0.281425
rclavicle -4.6615e-014 -1.59028e-014
rhumerus 5.32959 7.91024 -20.8105
rradius 26.3185
rwrist -9.19465
rhand 25.8778 1.48432
rfingers 7.12502
rthumb 49.9658 -19.7564
lclavicle -4.6615e-014 -1.59028e-014
lhumerus 2.23946 11.8761 -13.6099
lradius 24.0225
lwrist -21.5013
lhand 14.1849 28.7964
lfingers 7.12502
lthumb 39.0838 54.2924
rfemur -14.634 -10.0472 32.2545
rtibia 40.8715
rfoot 20.7525 -21.0906
rtoes 11.8452
lfemur -38.5964 7.72599 -34.1066
ltibia 25.2278
lfoot -32.9897 29.0303
ltoes 18.4994
1234
root -5.89514 17.1083 10.714 -159.711 -26.2046 -175.003
lowerback -23.0929 -1.63977 6.72331
upperback -6.04958 -6.24122 9.72044
thorax 6.69035 -3.7194 4.98933
lowerneck -7.91862 -19.8705 -7.9967
upperneck 8.31658 -26.5115 4.05819
head 5.28799 -13.0368 0.249856
rclavicle 1.89839e-014 8.26944e-014
rhumerus 6.62302 6.51459 -19.2662
rradius 26.1579
rwrist -8.22843
rhand 26.0719 1.18002
rfingers 7.12502
rthumb 50.1434 -19.9671
lclavicle 1.89839e-014 8.26944e-014
lhumerus 2.03745 12.628 -13.9993
lradius 23.9017
lwrist -22.1129
lhand 14.2024 28.1704
lfingers 7.12502
lthumb 39.1003 53.6616
rfemur -14.6704 -9.81783 32.1377
rtibia 40.611
rfoot 21.1991 -21.4256
rtoes 13.2741
lfemur -38.8723 7.6408 -34.1382
ltibia 25.3925
lfoot -31.7289 30.3048
ltoes 14.7341
